# xmcd CD database file
#
# Track frame offsets:
#	150
#	13688
#	31720
#	47383
#	58532
#	77576
#	88723
#	103428
#	115937
#	125043
#	137949
#	149972
#	162726
#	177326
#	194720
#	208497
#	224376
#	239370
#	249755
#	266025
#	283548
#	296082
#
# Disc length: 4146 seconds
#
# Revision: 0
# Processed by: cddbd v1.4PL0 Copyright (c) Steve Scherf et al.
# Submitted via: CDex 1.50
#
DISCID=63103016
DTITLE=Jörgen Petersen - Musiikin tähtihetkiä 17
DYEAR=1900
DGENRE=Salsa
TTITLE0=Tango granada
TTITLE1=manhattan
TTITLE2=april in paris
TTITLE3=people will say we're in love
TTITLE4=if i loved you
TTITLE5=syysunelmia
TTITLE6=musitatko monrepos'n
TTITLE7=kaunis kotimaani
TTITLE8=karjalan kunnailla
TTITLE9=puhu hiljaa rakkaudesta
TTITLE10=seireenien kutsu
TTITLE11=ai ai sentään
TTITLE12=granada
TTITLE13=fantasy for brass
TTITLE14=akselin ja elinan häävalssi
TTITLE15=romanssi
TTITLE16=exodus
TTITLE17=kaksi ruusua
TTITLE18=kultaiset korvarenkaat
TTITLE19=kuolleet lehdet
TTITLE20=manzanilla
TTITLE21=niin paljon kuuluu rakkauteen
EXTD=
EXTT0=
EXTT1=
EXTT2=
EXTT3=
EXTT4=
EXTT5=
EXTT6=
EXTT7=
EXTT8=
EXTT9=
EXTT10=
EXTT11=
EXTT12=
EXTT13=
EXTT14=
EXTT15=
EXTT16=
EXTT17=
EXTT18=
EXTT19=
EXTT20=
EXTT21=
PLAYORDER=
